<?xml version="1.0" encoding="utf-8"?>
<!-- Generator: Adobe Illustrator 16.0.0, SVG Export Plug-In . SVG Version: 6.00 Build 0)  -->
<!DOCTYPE svg PUBLIC "-//W3C//DTD SVG 1.1//EN" "http://www.w3.org/Graphics/SVG/1.1/DTD/svg11.dtd">
<svg version="1.1" id="Layer_1" xmlns="http://www.w3.org/2000/svg" xmlns:xlink="http://www.w3.org/1999/xlink" x="0px" y="0px"
	 width="24px" height="24px" viewBox="0 0 24 24" enable-background="new 0 0 24 24" xml:space="preserve">
<path fill="#FFFFFF" d="M22.245,4.015c0.313,0.313,0.313,0.826,0,1.139l-6.276,6.27c-0.313,0.312-0.313,0.826,0,1.141l6.273,6.271
	c0.313,0.313,0.313,0.826,0,1.141l-2.285,2.276c-0.314,0.312-0.828,0.312-1.143,0l-6.271-6.271c-0.313-0.313-0.828-0.313-1.141,0
	l-6.276,6.267c-0.313,0.313-0.828,0.313-1.141,0l-2.282-2.28c-0.313-0.313-0.313-0.826,0-1.14l6.278-6.269
	c0.313-0.313,0.313-0.827,0-1.141L1.709,5.147c-0.314-0.313-0.314-0.827,0-1.14l2.284-2.278C4.308,1.417,4.821,1.417,5.135,1.73
	L11.405,8c0.314,0.314,0.828,0.314,1.141,0.001l6.276-6.267c0.312-0.312,0.826-0.312,1.141,0L22.245,4.015z"/>
</svg>
