<?xml version="1.0" encoding="utf-8"?>
<!-- Generator: Adobe Illustrator 16.0.0, SVG Export Plug-In . SVG Version: 6.00 Build 0)  -->
<!DOCTYPE svg PUBLIC "-//W3C//DTD SVG 1.1//EN" "http://www.w3.org/Graphics/SVG/1.1/DTD/svg11.dtd">
<svg version="1.1" id="Layer_1" xmlns="http://www.w3.org/2000/svg" xmlns:xlink="http://www.w3.org/1999/xlink" x="0px" y="0px"
	 width="512px" height="512px" viewBox="0 0 512 512" enable-background="new 0 0 512 512" xml:space="preserve">
<path fill="#FFFFFF" d="M335.304,236.19L100.929,96.694C98.067,95.01,95.121,94,91.753,94c-9.176,0-16.668,7.577-16.668,16.837H75
	v289.601h0.084c0,9.26,7.492,16.837,16.668,16.837c3.452,0,6.314-1.179,9.429-2.862l234.122-139.328
	c5.556-4.631,9.092-11.617,9.092-19.447C344.396,247.808,340.859,240.905,335.304,236.19z M278.771,268.156l-150.716,89.692
	c-2.005,1.083-3.847,1.842-6.069,1.842c-5.908,0-10.73-4.876-10.73-10.839H111.2v-186.43h0.054c0-5.961,4.823-10.839,10.73-10.839
	c2.167,0,4.064,0.65,5.907,1.734l150.879,89.801c3.576,3.036,5.853,7.48,5.853,12.52
	C284.623,260.677,282.347,265.176,278.771,268.156z"/>
<g>
	<path fill="#FFFFFF" d="M427.908,236.19L193.534,96.694C190.671,95.01,187.725,94,184.357,94c-9.176,0-16.668,7.577-16.668,16.837
		h-0.084v1.989l199.101,118.502c6.944,5.894,11.364,14.522,11.364,24.309c0,9.786-4.42,18.521-11.364,24.308L167.604,398.433v2.005
		h0.084c0,9.26,7.493,16.837,16.668,16.837c3.452,0,6.314-1.179,9.429-2.862l234.122-139.328c5.556-4.631,9.092-11.617,9.092-19.447
		C437,247.808,433.464,240.905,427.908,236.19z"/>
</g>
</svg>
