<?xml version="1.0" encoding="utf-8"?>
<!-- Generator: Adobe Illustrator 16.0.0, SVG Export Plug-In . SVG Version: 6.00 Build 0)  -->
<!DOCTYPE svg PUBLIC "-//W3C//DTD SVG 1.1//EN" "http://www.w3.org/Graphics/SVG/1.1/DTD/svg11.dtd">
<svg version="1.1" id="Layer_1" xmlns="http://www.w3.org/2000/svg" xmlns:xlink="http://www.w3.org/1999/xlink" x="0px" y="0px"
	 width="512px" height="512px" viewBox="0 0 512 512" enable-background="new 0 0 512 512" xml:space="preserve">
<g>
	<path fill="#FFFFFF" d="M336.138,235.526L89.395,88.668c-3.014-1.773-6.116-2.836-9.661-2.836c-9.661,0-17.548,7.977-17.548,17.726
		h-0.089v304.885h0.089c0,9.749,7.888,17.726,17.548,17.726c3.634,0,6.647-1.241,9.927-3.014l246.477-146.682
		c5.85-4.874,9.572-12.23,9.572-20.473S341.987,240.49,336.138,235.526z M276.622,269.18l-158.67,94.426
		c-2.111,1.141-4.05,1.938-6.39,1.938c-6.219,0-11.297-5.134-11.297-11.41h-0.058v-196.27h0.057c0-6.276,5.078-11.411,11.297-11.411
		c2.282,0,4.279,0.685,6.219,1.826l158.842,94.54c3.765,3.196,6.161,7.875,6.161,13.181
		C282.783,261.306,280.387,266.042,276.622,269.18z"/>
	<path fill="#FFFFFF" d="M439.104,232.9l-278.4-165.7c-3.4-2-6.9-3.2-10.9-3.2c-10.9,0-19.8,9-19.8,20h-0.1v13.448l59.885,35.643
		c1.007,0.345,1.982,0.804,2.942,1.368l179.221,106.669c4.248,3.606,6.952,8.886,6.952,14.872s-2.704,11.33-6.952,14.87
		L192.924,377.411c-1,0.54-1.967,1.006-2.947,1.372l-60.074,35.751V428h0.1c0,11,8.9,20,19.8,20c4.1,0,7.5-1.4,11.2-3.4l278.1-165.5
		c6.6-5.5,10.8-13.8,10.8-23.1S445.703,238.5,439.104,232.9z"/>
</g>
</svg>
