<?xml version="1.0" encoding="utf-8"?>
<!-- Generator: Adobe Illustrator 16.0.0, SVG Export Plug-In . SVG Version: 6.00 Build 0)  -->
<!DOCTYPE svg PUBLIC "-//W3C//DTD SVG 1.1//EN" "http://www.w3.org/Graphics/SVG/1.1/DTD/svg11.dtd">
<svg version="1.1" id="Capa_1" xmlns="http://www.w3.org/2000/svg" xmlns:xlink="http://www.w3.org/1999/xlink" x="0px" y="0px"
	 width="512px" height="512px" viewBox="0 0 512 512" enable-background="new 0 0 512 512" xml:space="preserve">
<g>
	<g>
		<g>
			<path fill="#FFFFFF" d="M86.897,319.121c-5.276,5.273-8.242,12.432-8.242,19.888c0,7.457,2.966,14.617,8.242,19.887l8.817,8.82
				l-24.659,24.644c-3.372,3.388-3.387,8.866,0,12.24l36.357,36.367c1.618,1.619,3.826,2.526,6.117,2.526
				c2.295,0,4.504-0.907,6.123-2.541l24.643-24.643l8.782,8.777c5.272,5.274,12.436,8.238,19.888,8.238
				c7.457,0,14.617-2.964,19.891-8.238l43.92-43.924L130.808,275.222L86.897,319.121z"/>
			<path fill="#FFFFFF" d="M440.942,107.414l-36.357-36.368c-3.384-3.387-8.879-3.387-12.248,0L367.698,95.68l-8.793-8.782
				c-10.985-10.987-28.777-10.987-39.775-0.011l-43.91,43.921L381.175,236.78l43.924-43.924
				c10.976-10.987,10.976-28.793-0.015-39.777l-8.777-8.795l24.636-24.634C444.325,116.267,444.325,110.787,440.942,107.414z"/>
			<path fill="#FFFFFF" d="M262.333,143.698c-7.358-7.358-19.278-7.358-26.635,0c-7.358,7.358-7.358,19.276,0,26.635
				l105.958,105.958c3.68,3.679,8.498,5.518,13.315,5.518c4.821,0,9.64-1.839,13.32-5.518c7.358-7.357,7.358-19.277,0-26.635
				L262.333,143.698z"/>
			<path fill="#FFFFFF" d="M263.605,276.425l-26.266,26.288l-28.056-28.057l26.28-26.28c7.358-7.343,7.358-19.272,0-26.631
				c-7.358-7.358-19.277-7.358-26.635,0l-26.277,26.276L170.327,235.7c-7.356-7.358-19.277-7.358-26.635,0
				c-7.354,7.358-7.354,19.277,0,26.632l25.604,25.604c0.015,0.014,0.015,0.025,0.027,0.038c0.011,0.015,0.023,0.015,0.035,0.021
				l80.292,80.293c3.68,3.68,8.498,5.518,13.319,5.518c4.817,0,9.639-1.836,13.317-5.518c7.357-7.358,7.357-19.274,0-26.632
				l-12.313-12.313l26.267-26.287c7.357-7.359,7.357-19.292,0-26.636C282.883,269.066,270.94,269.066,263.605,276.425z"/>
		</g>
	</g>
</g>
</svg>
