<?xml version="1.0" encoding="utf-8"?>
<!-- Generator: Adobe Illustrator 16.0.0, SVG Export Plug-In . SVG Version: 6.00 Build 0)  -->
<!DOCTYPE svg PUBLIC "-//W3C//DTD SVG 1.1//EN" "http://www.w3.org/Graphics/SVG/1.1/DTD/svg11.dtd">
<svg version="1.1" id="Layer_1" xmlns="http://www.w3.org/2000/svg" xmlns:xlink="http://www.w3.org/1999/xlink" x="0px" y="0px"
	 width="612px" height="792px" viewBox="0 0 612 792" enable-background="new 0 0 612 792" xml:space="preserve">
<g id="XMLID_12_">
	<path id="XMLID_13_" d="M416.149,413.414l-82.333,82.328l-0.001-377.93c0.001-15.361-12.454-27.816-27.819-27.816
		c-15.363,0-27.818,12.455-27.818,27.816l0.001,377.93l-82.327-82.327c-5.433-5.434-12.552-8.149-19.67-8.148
		c-7.116,0-14.238,2.715-19.669,8.148c-10.863,10.863-10.864,28.478,0,39.34l129.809,129.813c0.65,0.649,1.335,1.264,2.049,1.848
		c0.314,0.26,0.646,0.484,0.97,0.728c0.402,0.302,0.796,0.612,1.213,0.892c0.396,0.264,0.804,0.492,1.204,0.734
		c0.376,0.225,0.74,0.46,1.126,0.666c0.415,0.221,0.837,0.405,1.259,0.604c0.402,0.188,0.8,0.394,1.211,0.563
		c0.405,0.169,0.819,0.306,1.232,0.45c0.442,0.159,0.883,0.33,1.338,0.468c0.409,0.125,0.823,0.214,1.236,0.318
		c0.468,0.118,0.929,0.25,1.402,0.343c0.475,0.096,0.951,0.148,1.425,0.219c0.424,0.062,0.839,0.142,1.268,0.184
		c0.866,0.085,1.734,0.126,2.602,0.133c0.045,0,0.095,0.006,0.141,0.007c0.062,0,0.124-0.009,0.186-0.009
		c0.854-0.006,1.707-0.045,2.554-0.131c0.435-0.042,0.858-0.123,1.285-0.187c0.47-0.067,0.939-0.12,1.404-0.213
		c0.48-0.095,0.946-0.228,1.417-0.348c0.41-0.104,0.821-0.192,1.226-0.314c0.458-0.14,0.9-0.311,1.351-0.472
		c0.408-0.146,0.817-0.279,1.222-0.446c0.417-0.172,0.813-0.375,1.221-0.567c0.418-0.196,0.84-0.383,1.249-0.602
		c0.387-0.208,0.752-0.443,1.129-0.667c0.403-0.239,0.813-0.47,1.204-0.731c0.414-0.274,0.801-0.58,1.195-0.879
		c0.33-0.246,0.67-0.479,0.992-0.742c0.676-0.555,1.326-1.146,1.947-1.76c0.03-0.029,0.062-0.056,0.091-0.082L455.49,452.758
		c10.861-10.863,10.865-28.477,0-39.34C444.627,402.551,427.013,402.555,416.149,413.414z"/>
	<path id="XMLID_14_" d="M584.182,646.363H27.818C12.455,646.363,0,658.818,0,674.182C0,689.546,12.455,702,27.818,702h556.363
		C599.545,702,612,689.545,612,674.182C612,658.819,599.545,646.363,584.182,646.363z"/>
</g>
</svg>
