<?xml version="1.0" encoding="utf-8"?>
<!-- Generator: Adobe Illustrator 16.0.0, SVG Export Plug-In . SVG Version: 6.00 Build 0)  -->
<!DOCTYPE svg PUBLIC "-//W3C//DTD SVG 1.1//EN" "http://www.w3.org/Graphics/SVG/1.1/DTD/svg11.dtd">
<svg version="1.1" id="Layer_2" xmlns="http://www.w3.org/2000/svg" xmlns:xlink="http://www.w3.org/1999/xlink" x="0px" y="0px"
	 width="240px" height="240px" viewBox="0 0 240 240" enable-background="new 0 0 240 240" xml:space="preserve">
<path d="M179.963,172.146c0.598,0.291,0.777,0.451,0.953,0.451c7.121,0.041,14.239,0.092,21.355,0.09
	c9.292-0.002,14.061-4.762,14.065-14.141c0.022-34.693,0.021-69.384,0.002-104.077c-0.005-9.559-4.752-14.309-14.224-14.316
	c-14.142-0.01-28.284-0.002-42.422-0.002c-1.09,0-2.176,0-3.567,0c0-7.546,0.008-14.743-0.004-21.939
	c-0.012-9.404-4.664-14.097-13.999-14.104c-14.551-0.011-29.104,0.252-43.645-0.102c-8.317-0.203-15.242,4.57-14.678,14.834
	c0.386,6.972,0.075,13.979,0.075,21.312c-1.396,0-2.488,0-3.581,0c-13.937,0-27.875-0.001-41.813,0
	c-10.292-0.001-14.825,4.561-14.826,14.941c-0.008,34.284-0.01,68.571,0.01,102.853c0,1.521,0.067,3.063,0.326,4.556
	c0.86,4.978,3.788,8.181,8.615,9.649c0.389,0.121,0.786,0.298,1.18,0.298c8.611,0.018,17.225,0.014,26.251,0.014
	c0-3.041,0-5.962,0-8.883c0-10.275-0.019-20.551,0.021-30.825c0.006-1.509,0.043-3.098,0.507-4.505
	c0.804-2.438,3.669-3.949,6.105-3.542c3.117,0.523,5.036,2.744,5.052,6.267c0.058,12.616,0.028,25.23,0.03,37.847
	c0,1.183,0,2.367,0,3.657c8.287,0,16.154,0,24.373,0c0-1.41,0-2.602,0-3.796c0.001-12.31,0.026-24.621-0.019-36.931
	c-0.009-2.733,0.607-5.079,3.18-6.436c4.145-2.186,8.478,0.841,8.506,6.046c0.063,12.515,0.022,25.027,0.024,37.542
	c0,1.176,0,2.354,0,3.539c8.361,0,16.229,0,24.368,0c0-1.451,0-2.654,0-3.857c0-12.308,0.022-24.619-0.016-36.931
	c-0.01-2.748,0.697-5.063,3.283-6.375c4.086-2.073,8.356,0.843,8.391,5.874c0.083,12.616,0.028,25.232,0.041,37.849
	c0,1.172,0.095,2.34,0.146,3.416c8.289,0,16.16,0,24.219,0c0-12.171-0.005-24.065,0.007-35.959c0-2.241-0.103-4.491,0.127-6.708
	c0.31-2.991,3.023-5.24,5.865-5.148c2.799,0.09,5.184,2.239,5.56,5.124c0.156,1.207,0.152,2.438,0.152,3.655
	c0.008,11.801,0.006,23.603,0.006,35.403C179.963,169.97,179.963,171.161,179.963,172.146z"/>
</svg>
