<?xml version="1.0" encoding="utf-8"?>
<!-- Generator: Adobe Illustrator 16.0.0, SVG Export Plug-In . SVG Version: 6.00 Build 0)  -->
<!DOCTYPE svg PUBLIC "-//W3C//DTD SVG 1.1//EN" "http://www.w3.org/Graphics/SVG/1.1/DTD/svg11.dtd">
<svg version="1.1" id="Layer_1" xmlns="http://www.w3.org/2000/svg" xmlns:xlink="http://www.w3.org/1999/xlink" x="0px" y="0px"
	 width="64px" height="64px" viewBox="0 0 64 64" enable-background="new 0 0 64 64" xml:space="preserve">
<path fill="#FFFFFF" d="M62.869,16.842h-0.057c-1.097,0.007-1.267-0.945-1.285-1.387V8.542c0-0.738-0.598-1.336-1.334-1.336H40.428
	c-4.959,0-6.809,1.838-7.268,2.415l-0.126,0.175l-0.001,0.003l-0.391,0.536c-0.002,0-0.002,0-0.002,0
	c-0.524,0.721-0.981,0.414-1.202,0.178L30.691,9.58l-0.37-0.446c-0.622-0.653-2.243-1.928-5.456-1.928H3.808
	c-0.738,0-1.336,0.598-1.336,1.336v6.825c0,1.195-0.649,1.435-1.047,1.475H1.129c-0.324,0.02-1.078,0.208-1.078,1.595v32.529
	c0,0.798,0.647,1.444,1.445,1.444h19.218c6.131,0,8.803,2.313,9.604,3.199l0.457,0.565h0.001c0,0,1.226,1.388,2.518,0l0,0
	l0.269-0.313l0,0l0.004-0.002l0.342-0.4c0.01-0.012,0.092-0.104,0.211-0.227c1.023-0.994,3.58-2.822,8.58-2.822h19.805
	c0.799,0,1.445-0.646,1.445-1.444V18.122C63.949,16.946,63.098,16.848,62.869,16.842z M58.551,45.861
	c0,0.642-0.535,1.158-1.201,1.158H41.055c-5.799,0-7.904,2.621-7.904,2.621l-0.267,0.357l-0.125,0.173c-0.001,0-0.001,0-0.001,0
	c-0.553,0.751-1.366,0.006-1.37,0.002l-0.375-0.469c-0.278-0.334-2.408-2.685-7.563-2.685H6.65c-0.663,0-1.199-0.519-1.199-1.158
	V11.199c0-0.64,0.536-1.158,1.199-1.158h13.043c9.702,0,10.621,5.511,10.684,7.112v24.106c0,1.752,0.835,2.081,1.306,2.13h0.701
	c0.479-0.049,1.243-0.334,1.243-1.701V16.842h-0.008c0.072-2.005,0.854-6.802,6.689-6.802H57.35c0.666,0,1.201,0.518,1.201,1.158
	V45.861z"/>
</svg>
