<?xml version="1.0" encoding="utf-8"?>
<!-- Generator: Adobe Illustrator 16.0.0, SVG Export Plug-In . SVG Version: 6.00 Build 0)  -->
<!DOCTYPE svg PUBLIC "-//W3C//DTD SVG 1.1//EN" "http://www.w3.org/Graphics/SVG/1.1/DTD/svg11.dtd">
<svg version="1.1" id="Layer_1" xmlns="http://www.w3.org/2000/svg" xmlns:xlink="http://www.w3.org/1999/xlink" x="0px" y="0px"
	 width="612px" height="792px" viewBox="0 0 612 792" enable-background="new 0 0 612 792" xml:space="preserve">
<g id="internet-network">
	<g>
		<g id="_x31_3">
			<path id="icon_1_" fill="#FFFFFF" d="M306.057,20.489c-166.803,0-301.944,135.208-301.944,301.981
				c0,166.715,135.142,301.916,301.944,301.916c166.687,0,301.828-135.201,301.828-301.916
				C607.885,155.7,472.743,20.489,306.057,20.489z M274.875,116.872h14.674V99.435h-10.126h-2.757V54.52h18.366V31.54l1.055-2.427
				c3.241-0.124,6.537-0.331,9.971-0.331c14.617,0,29.038,1.136,43.103,3.249v15.109h21.095v23.858v33.492h-16.04l-13.868,13.78
				l-33.388,33.52l-17.407,17.44l-14.674-14.683v-37.676H274.875z M218.493,42.196l5.438,5.418l-9.662,9.662h-16.511V73.71h22.975
				h11.851v76.194h-26.591V94.821h-18.404V68.273h-11.896v15.552l-11.446,11.498h-27.048l-7.479-7.474
				C156.156,67.903,186.1,52.292,218.493,42.196z M314.319,468.345h-24.77l-12.884,18.396v41.245l-37.654,27.537v49.54
				l-42.204-38.456V465.546l-44.994-42.186v-51.329l-31.125-22.935h-27.61L73.4,329.298v-27.063l-13.273-8.211l-3.751,10.083
				l6.477,3.657v22.994l-16.524-20.21l-8.25-32.18l-7.406-1.829v-56.072c14.748-39.535,37.641-75.089,66.833-104.451l91.907,0.855
				l-3.573,19.309l-27.571,1.77l2.741,9.184l6.472,7.414l-7.406,11.869l-21.986-2.669l12.867,17.425l21.934,15.536l7.407,17.45
				l9.115-2.741v-45.001h24.855v5.556h25.691v31.205h-11.011v12.81h-11.026v8.284h15.574L223.45,234.34l-4.156-4.113l-9.692,9.58
				v8.298l-8.666,8.71l-10.96,11.026l-12.927,12.854l-8.637,8.756v27.521h-12.045v-14.739h-39.372v16.614l38.546,36.674h77.043
				v7.312h27.558l30.305,38.531h23.873L314.319,468.345L314.319,468.345z M548.276,297.621v23.923h-39.433l-19.34-19.309v-12.781
				h-11.392v17.894l26.117,26.121h29.849v21.552l-27.138,27.081v39.504v36.656h-20.575v39.02l-16.066,16.009H432.52v-34.672
				l-20.386-20.356v-63.84l-25.369-25.368h-53.035l-20.836-20.858V295.32l17.961-17.778h30.187l19.31-19.309h10.112h12.883v10.112
				h70.579v-12.397h-17.808l10.511-10.569l10.128-10.053h17.317l-10.92-10.967h-16.424l-17.32,17.363v13.503l-18.526-18.573h-11.528
				l16.951,16.995h-13.724l-11.038-11.042v-7.372l-16.524-16.538l-12.355,12.411l-10.554,10.612v19.206h-21.152v-9.066v-29.422
				h7.768v-6.897l5.057-5.087l-9.081-9.153l-12,11.941l-9.656-9.673l5.144-5.01v-9.14v-18.396h19.236v11.025l16.407,16.511h12.058
				v-12.884h36.69V172.85h14.639v-18.307h-15.556v-17.452h-8.268v34.876l-6.439,6.428l-12.843-5.543l-22.006-5.512l1.725-21.021
				l22.137-16.554l12.795-22.039l23.909-5.525l-2.771,11.012l15.58,2.726l-0.9,11.024l17.425-1.828l8.282-5.482l1.8-9.184h36.793
				c55.806,53.431,90.714,128.714,90.714,211.997c0,4.481-0.104,8.874-0.339,13.37l-63.842-63.84l-6.441,6.368L548.276,297.621z"/>
			<g>
				<g>
					<rect x="195.313" y="706.618" fill="#FFFFFF" width="221.39" height="68.382"/>
					<rect x="291.002" y="635.942" fill="#FFFFFF" width="29.999" height="102.605"/>
				</g>
				<g>
					<rect x="4.114" y="728.035" fill="#FFFFFF" width="177.483" height="22.563"/>
					<rect x="430.44" y="728.035" fill="#FFFFFF" width="177.447" height="22.563"/>
				</g>
			</g>
		</g>
	</g>
</g>
<g id="Layer_1_1_">
</g>
</svg>
