<?xml version="1.0" encoding="utf-8"?>
<!-- Generator: Adobe Illustrator 16.0.0, SVG Export Plug-In . SVG Version: 6.00 Build 0)  -->
<!DOCTYPE svg PUBLIC "-//W3C//DTD SVG 1.1//EN" "http://www.w3.org/Graphics/SVG/1.1/DTD/svg11.dtd">
<svg version="1.1" id="Capa_1" xmlns="http://www.w3.org/2000/svg" xmlns:xlink="http://www.w3.org/1999/xlink" x="0px" y="0px"
	 width="774.266px" height="774.266px" viewBox="0 0 774.266 774.266" enable-background="new 0 0 774.266 774.266"
	 xml:space="preserve">
<g>
	<path fill="#030104" d="M467.5,394.5h-53v-53c0-14.654-11.846-26.5-26.5-26.5c-14.654,0-26.5,11.846-26.5,26.5v53h-53
		c-14.654,0-26.5,11.846-26.5,26.5s11.846,26.5,26.5,26.5h53v53c0,14.654,11.846,26.5,26.5,26.5c14.654,0,26.5-11.846,26.5-26.5v-53
		h53c14.654,0,26.5-11.846,26.5-26.5S482.154,394.5,467.5,394.5z"/>
	<path fill="#030104" d="M650.038,226.962l-136-136C507.68,84.57,499.044,81,490,81H218c-56.236,0-102,45.764-102,102v408
		c0,56.236,45.764,102,102,102h340c56.236,0,102-45.764,102-102V251C660,241.956,656.43,233.32,650.038,226.962z M587.924,241H551
		c-28.118,0-51-22.882-51-51v-36.924L587.924,241z M568,635H208c-18.768,0-34-15.232-34-34V173c0-18.768,15.232-34,34-34h258v51
		c0,46.886,38.114,85,85,85h51v326C602,619.768,586.768,635,568,635z"/>
</g>
</svg>
