<?xml version="1.0" encoding="utf-8"?>
<!-- Generator: Adobe Illustrator 16.0.0, SVG Export Plug-In . SVG Version: 6.00 Build 0)  -->
<!DOCTYPE svg PUBLIC "-//W3C//DTD SVG 1.1//EN" "http://www.w3.org/Graphics/SVG/1.1/DTD/svg11.dtd">
<svg version="1.1" id="Capa_1" xmlns="http://www.w3.org/2000/svg" xmlns:xlink="http://www.w3.org/1999/xlink" x="0px" y="0px"
	 width="612px" height="792px" viewBox="0 0 612 792" enable-background="new 0 0 612 792" xml:space="preserve">
<path d="M13.162,90.093h585.676c5.82,0,10.535,4.716,10.535,10.536v448.795c0,5.82-4.715,10.536-10.535,10.536H13.162
	c-5.819,0-10.535-4.716-10.535-10.536V100.628C2.626,94.809,7.342,90.093,13.162,90.093z M80.979,489.374h450.047V160.678H80.979
	V489.374z M472.455,571.897v92.115c-7.729,6.57-12.643,16.346-12.643,27.285c0,19.786,16.034,35.82,35.819,35.82
	c19.786,0,35.819-16.034,35.819-35.82c0-10.939-4.917-20.715-12.642-27.285v-92.115H472.455z M346.033,571.897v92.115
	c-7.728,6.57-12.642,16.346-12.642,27.285c0,19.786,16.034,35.82,35.819,35.82c19.784,0,35.819-16.034,35.819-35.82
	c0-10.939-4.918-20.715-12.642-27.285v-92.115H346.033z M219.612,571.897v92.115c-7.728,6.57-12.642,16.346-12.642,27.285
	c0,19.786,16.034,35.82,35.819,35.82c19.785,0,35.819-16.034,35.819-35.82c0-10.939-4.918-20.715-12.642-27.285v-92.115H219.612z
	 M93.191,571.897v92.115c-7.725,6.57-12.643,16.346-12.643,27.285c0,19.786,16.035,35.82,35.82,35.82
	c19.785,0,35.819-16.034,35.819-35.82c0-10.939-4.918-20.715-12.643-27.285v-92.115H93.191z"/>
</svg>
