<?xml version="1.0" encoding="utf-8"?>
<!-- Generator: Adobe Illustrator 16.0.0, SVG Export Plug-In . SVG Version: 6.00 Build 0)  -->
<!DOCTYPE svg PUBLIC "-//W3C//DTD SVG 1.1//EN" "http://www.w3.org/Graphics/SVG/1.1/DTD/svg11.dtd">
<svg version="1.1" id="Capa_1" xmlns="http://www.w3.org/2000/svg" xmlns:xlink="http://www.w3.org/1999/xlink" x="0px" y="0px"
	 width="612px" height="792px" viewBox="0 0 612 792" enable-background="new 0 0 612 792" xml:space="preserve">
<g>
	<path fill="#030104" d="M385.5,403.5h-53v-53c0-14.654-11.846-26.5-26.5-26.5s-26.5,11.846-26.5,26.5v53h-53
		c-14.654,0-26.5,11.846-26.5,26.5s11.846,26.5,26.5,26.5h53v53c0,14.654,11.846,26.5,26.5,26.5s26.5-11.846,26.5-26.5v-53h53
		c14.654,0,26.5-11.846,26.5-26.5S400.154,403.5,385.5,403.5z"/>
	<path fill="#030104" d="M568.038,235.962l-136-136C425.68,93.57,417.044,90,408,90H136C79.764,90,34,135.764,34,192v408
		c0,56.236,45.764,102,102,102h340c56.236,0,102-45.764,102-102V260C578,250.956,574.43,242.32,568.038,235.962z M505.924,250H469
		c-28.118,0-51-22.882-51-51v-36.924L505.924,250z M486,644H126c-18.768,0-34-15.232-34-34V182c0-18.768,15.232-34,34-34h258v51
		c0,46.886,38.114,85,85,85h51v326C520,628.768,504.768,644,486,644z"/>
</g>
</svg>
