<?xml version="1.0" encoding="utf-8"?>
<!-- Generator: Adobe Illustrator 16.0.0, SVG Export Plug-In . SVG Version: 6.00 Build 0)  -->
<!DOCTYPE svg PUBLIC "-//W3C//DTD SVG 1.1//EN" "http://www.w3.org/Graphics/SVG/1.1/DTD/svg11.dtd">
<svg version="1.1" id="Capa_1" xmlns="http://www.w3.org/2000/svg" xmlns:xlink="http://www.w3.org/1999/xlink" x="0px" y="0px"
	 width="512px" height="512px" viewBox="0 0 512 512" enable-background="new 0 0 512 512" xml:space="preserve">
<g>
	<path fill="#FFFFFF" d="M426.459,92.553c-6.391-2.645-11.845-1.557-16.367,3.275l-30.397,30.167
		c-16.68-15.745-35.735-27.942-57.17-36.594c-21.434-8.65-43.609-12.977-66.524-12.977c-24.317,0-47.543,4.756-69.678,14.264
		c-22.137,9.508-41.233,22.289-57.288,38.344c-16.056,16.058-28.839,35.151-38.348,57.287c-9.507,22.137-14.263,45.359-14.263,69.68
		c0,24.313,4.755,47.542,14.263,69.678c9.511,22.138,22.291,41.232,38.348,57.289c16.056,16.051,35.152,28.834,57.289,38.343
		c22.135,9.509,45.361,14.266,69.678,14.266c26.81,0,52.303-5.65,76.462-16.953c24.16-11.299,44.737-27.238,61.732-47.817
		c1.244-1.558,1.83-3.313,1.75-5.26c-0.074-1.948-0.819-3.546-2.221-4.793l-32.029-32.267c-1.721-1.401-3.662-2.102-5.846-2.102
		c-2.494,0.312-4.286,1.25-5.379,2.809c-11.378,14.812-25.33,26.266-41.854,34.378c-16.521,8.103-34.058,12.152-52.608,12.152
		c-16.209,0-31.681-3.157-46.412-9.47c-14.732-6.312-27.478-14.848-38.231-25.604c-10.753-10.756-19.288-23.497-25.602-38.23
		c-6.313-14.731-9.469-30.198-9.469-46.412c0-16.212,3.159-31.687,9.469-46.415c6.312-14.729,14.845-27.475,25.602-38.229
		c10.758-10.756,23.499-19.291,38.231-25.605c14.727-6.312,30.203-9.47,46.412-9.47c31.333,0,58.537,10.678,81.607,32.036
		l-32.274,32.263c-4.835,4.676-5.923,10.055-3.278,16.134c2.655,6.236,7.254,9.353,13.805,9.353h104.751
		c4.055,0,7.56-1.479,10.522-4.442c2.958-2.961,4.438-6.468,4.438-10.521V106.356C435.578,99.811,432.546,95.212,426.459,92.553z"/>
</g>
</svg>
