<?xml version="1.0" encoding="utf-8"?>
<!-- Generator: Adobe Illustrator 16.0.0, SVG Export Plug-In . SVG Version: 6.00 Build 0)  -->
<!DOCTYPE svg PUBLIC "-//W3C//DTD SVG 1.1//EN" "http://www.w3.org/Graphics/SVG/1.1/DTD/svg11.dtd">
<svg version="1.1" id="Layer_1" xmlns="http://www.w3.org/2000/svg" xmlns:xlink="http://www.w3.org/1999/xlink" x="0px" y="0px"
	 width="512px" height="512px" viewBox="0 0 512 512" enable-background="new 0 0 512 512" xml:space="preserve">
<path fill="#FFFFFF" d="M405.2,232.9L126.8,67.2c-3.4-2-6.9-3.2-10.9-3.2c-10.9,0-19.8,9-19.8,20H96v344h0.1c0,11,8.9,20,19.8,20
	c4.1,0,7.5-1.4,11.2-3.4l278.1-165.5c6.6-5.5,10.8-13.8,10.8-23.1S411.8,238.5,405.2,232.9z M338.048,270.87L159.021,377.411
	c-2.382,1.287-4.57,2.188-7.21,2.188c-7.017,0-12.746-5.793-12.746-12.875H139v-221.45h0.064c0-7.081,5.729-12.875,12.746-12.875
	c2.575,0,4.828,0.773,7.017,2.06l179.221,106.669C342.296,244.734,345,250.013,345,256C345,261.986,342.296,267.33,338.048,270.87z"
	/>
</svg>
