<?xml version="1.0" encoding="utf-8"?>
<!-- Generator: Adobe Illustrator 16.0.0, SVG Export Plug-In . SVG Version: 6.00 Build 0)  -->
<!DOCTYPE svg PUBLIC "-//W3C//DTD SVG 1.1//EN" "http://www.w3.org/Graphics/SVG/1.1/DTD/svg11.dtd">
<svg version="1.1" id="Capa_1" xmlns="http://www.w3.org/2000/svg" xmlns:xlink="http://www.w3.org/1999/xlink" x="0px" y="0px"
	 width="512px" height="512px" viewBox="0 0 512 512" enable-background="new 0 0 512 512" xml:space="preserve">
<g>
	<g>
		<path fill="#FFFFFF" d="M245.587,254.296c0-2.104-0.837-4.125-2.326-5.613L113.197,118.63c-3.101-3.1-8.126-3.1-11.227,0
			l-31.877,31.874c-1.488,1.485-2.326,3.509-2.326,5.609c0,2.104,0.837,4.125,2.326,5.613l92.571,92.57L70.093,346.87
			c-1.488,1.488-2.326,3.51-2.326,5.613s0.837,4.125,2.326,5.613l31.877,31.873c1.552,1.553,3.581,2.326,5.613,2.326
			c2.033,0,4.062-0.773,5.614-2.326l130.064-130.064C244.75,258.421,245.587,256.408,245.587,254.296z"/>
		<path fill="#FFFFFF" d="M436.293,344.901H234.417c-4.382,0-7.94,3.557-7.94,7.938v34.923c0,4.382,3.558,7.939,7.94,7.939h201.876
			c4.383,0,7.94-3.558,7.94-7.939V352.84C444.233,348.458,440.676,344.901,436.293,344.901z"/>
	</g>
</g>
</svg>
