<?xml version="1.0" encoding="utf-8"?>
<!-- Generator: Adobe Illustrator 16.0.0, SVG Export Plug-In . SVG Version: 6.00 Build 0)  -->
<!DOCTYPE svg PUBLIC "-//W3C//DTD SVG 1.1//EN" "http://www.w3.org/Graphics/SVG/1.1/DTD/svg11.dtd">
<svg version="1.1" id="Layer_1" xmlns="http://www.w3.org/2000/svg" xmlns:xlink="http://www.w3.org/1999/xlink" x="0px" y="0px"
	 width="512px" height="512px" viewBox="0 0 512 512" enable-background="new 0 0 512 512" xml:space="preserve">
<path fill="#FFFFFF" d="M419.449,83H92.551C87.235,83,83,87.235,83,92.551v326.898c0,5.315,4.235,9.551,9.551,9.551h326.898
	c5.226,0,9.551-4.235,9.551-9.551V92.551C429,87.235,424.675,83,419.449,83z M379.512,372.693c0,3.796-3.087,6.818-6.818,6.818
	H139.307c-3.795,0-6.819-3.022-6.819-6.818V139.307c0-3.795,3.024-6.819,6.819-6.819h233.386c3.731,0,6.818,3.024,6.818,6.819
	V372.693z"/>
</svg>
