<?xml version="1.0" encoding="utf-8"?>
<!-- Generator: Adobe Illustrator 16.0.0, SVG Export Plug-In . SVG Version: 6.00 Build 0)  -->
<!DOCTYPE svg PUBLIC "-//W3C//DTD SVG 1.1//EN" "http://www.w3.org/Graphics/SVG/1.1/DTD/svg11.dtd">
<svg version="1.1" id="Layer_1" xmlns="http://www.w3.org/2000/svg" xmlns:xlink="http://www.w3.org/1999/xlink" x="0px" y="0px"
	 width="64px" height="64px" viewBox="0 0 64 64" enable-background="new 0 0 64 64" xml:space="preserve">
<g>
	<path fill="#FFFFFF" d="M25.812,17.208l-1.178,1.18l-0.126,0.126c0,0-0.543,1.076,1.926,1.219v0.003c0,0,1.137,0.098,2.246,1.205
		l2.732,2.734c0.998,0.998,1.026,2.037,0.979,2.504c-0.228,1.286-0.821,2.519-1.816,3.512c-0.985,0.989-2.211,1.576-3.487,1.804
		c-0.565,0.054-1.642-0.044-2.833-1.237l-2.072-2.073c-1.305-1.305-1.583-2.99-1.583-2.99l-0.003,0.002
		c-0.505-2.292-1.197-1.576-1.197-1.576l-1.308,1.304c-1.895,1.895-1.895,4.967,0,6.86l7.716,7.719
		c1.579,1.579,3.967,1.822,5.818,0.773l0.013,0.017c0,0,1.699-1.074,3.986,1.213l20.581,20.584c0,0,2.501,2.457,4.86,0.099
		l1.945-1.949c0.66-0.732,2.053-2.817-0.506-5.375L42.68,35.029c-2.629-2.628-1.357-4.554-1.357-4.554l-0.014-0.013
		c0.879-1.807,0.582-4.035-0.916-5.534l-7.717-7.72C30.781,15.314,27.708,15.314,25.812,17.208z M39.249,28.021
		c0,0,0.338,0.521-0.913,3.774c-0.41,1.377-0.404,2.063-0.348,2.369c0.113,0.379,0.313,0.771,0.691,1.146l21.357,21.366
		c0.382,0.433,0.943,1.374-0.057,2.427l-0.178,0.18c-0.977,0.974-1.811,0.31-2.033,0.092L36.532,38.134
		c-1.481-1.479-3.079-1.022-3.079-1.022v-0.006c-0.11,0.024-0.215,0.013-0.322,0.027c-0.016,0.016-0.025,0.038-0.048,0.041
		c-0.351,0.066-2.589,0.913-2.823,0.998c-0.013,0.008-0.025,0.01-0.038,0.016l-0.006,0.004l0,0
		c-0.878,0.342-1.914,0.162-2.625-0.549c-0.957-0.957-0.957-2.509,0-3.466c0.164-0.163,0.351-0.286,0.543-0.395V33.77
		c0,0,0.028-0.013,0.038-0.016c0.054-0.029,0.107-0.045,0.161-0.066c0.594-0.25,2.47-1.076,3.351-1.958l0.771-0.768
		c0,0,0.878-0.935,2.125-3.462c0.048-0.123,0.102-0.238,0.171-0.354c0.024-0.054,0.051-0.097,0.076-0.153
		c0.009,0.006,0.016,0.011,0.028,0.014c0.078-0.112,0.139-0.232,0.24-0.335c0.959-0.957,2.51-0.957,3.467,0
		c0.379,0.381,0.604,0.856,0.68,1.349H39.249z"/>
	<path fill="#FFFFFF" d="M61.415,26.006h-3.144c-2.463,0-3.086-2.287-3.086-2.287s-0.016,0.003-0.021,0.006
		c-0.366-1.055-0.783-2.088-1.282-3.076c0-0.003,0-0.003-0.003-0.006c-0.831-1.829,0.727-3.386,0.813-3.47l2.006-2.009
		c0.707-0.706,0.707-1.855,0-2.563l-5.913-5.913c-0.71-0.708-1.856-0.707-2.563,0.001l-1.453,1.453
		c-2.273,2.288-4.406,1.182-4.406,1.182L42.355,9.33c-0.816-0.391-1.653-0.745-2.514-1.052c-0.041-0.017-0.068-0.035-0.109-0.053
		c-1.901-0.778-2.151-2.728-2.178-3.517V2.6c0-1.001-0.812-1.813-1.812-1.813h-8.702c-1.001,0-1.813,0.812-1.813,1.813v2.623
		c0,2.623-2.22,3.022-2.22,3.022l0.013,0.013c-0.96,0.342-1.901,0.724-2.808,1.173c-0.016,0.007-0.025,0.004-0.041,0.011
		c-1.81,0.801-2.811,0.015-3.067-0.231l-0.06-0.062c0-0.001-0.009-0.011-0.009-0.011h-0.003l-2.451-2.457
		c-0.711-0.708-1.857-0.708-2.565-0.002l-5.919,5.91c-0.708,0.708-0.71,1.856,0,2.564l1.964,1.968l0,0c0,0,1.703,1.643,0.859,3.487
		c0,0.001,0,0.001,0,0.003c-0.49,0.96-0.9,1.966-1.263,2.993c-0.025,0.055-0.051,0.095-0.076,0.156
		c-0.751,1.842-2.151,2.192-2.899,2.246H1.824c-1.001,0-1.813,0.812-1.813,1.812v8.364c0,1.002,0.812,1.813,1.813,1.813h3.253
		c1.841,0,2.328,1.699,2.328,1.699s0.013-0.031,0.019-0.047c0.379,1.172,0.809,2.32,1.342,3.41l-0.009,0.004
		c0,0,1.149,1.951-0.139,3.239v0.005l-2.53,2.525c-0.708,0.708-0.708,1.859,0,2.564L12,57.311c0.71,0.707,1.857,0.707,2.564,0
		l2.274-2.274l0.006-0.006l0.101-0.099c0.312-0.297,1.409-1.104,3.521-0.233c0.022,0.01,0.035,0.013,0.057,0.02
		c0.805,0.382,1.636,0.729,2.485,1.029l-0.009,0.01c0,0,2.227,0.663,2.227,2.899V61.4c0,1.002,0.812,1.813,1.813,1.813h8.702
		c1.001,0,1.812-0.813,1.812-1.813v-3.008c0.041-0.662,0.336-1.914,1.896-2.525c0.06-0.025,0.098-0.049,0.146-0.069
		c0.603-0.209,1.18-0.465,1.766-0.714c1.404-0.783,0.101-2.375,0.101-2.375l-0.458-0.544c-1.23-1.465-3.209-0.556-3.209-0.556
		l-0.003-0.014c-0.171,0.057-0.335,0.123-0.509,0.178c-0.055,0.02-0.09,0.041-0.151,0.065c-2.7,0.995-2.726,3.048-2.726,3.048v2.41
		c-0.038,2.051-1.672,2.41-2.518,2.464H30.91c-2.104,0.041-2.479-1.245-2.533-1.93v-2.772c0-2.55-2.846-3.254-2.846-3.254
		l0.01-0.013c-1.542-0.455-3-1.103-4.368-1.883c-0.057-0.025-0.104-0.038-0.165-0.069c-2.306-1.156-4.021,0.475-4.021,0.475
		l-1.958,1.957c-1.368,1.361-2.378,0.728-2.751,0.39l-0.158-0.158l-0.006-0.009l0,0l-1.608-1.608
		c-0.003-0.003-0.003-0.003-0.006-0.006c-1.26-1.257,0.379-2.985,0.597-3.203l1.908-1.907c0.003,0,0.003-0.006,0.003-0.006
		C14.48,44.29,13.324,42,13.324,42s0.016-0.003,0.019-0.003c-0.736-1.336-1.342-2.748-1.775-4.242
		c-0.013-0.041-0.029-0.065-0.044-0.106c-0.97-2.679-3.414-2.635-3.462-2.635L6.205,35.02c-2.17,0.004-2.562-1.408-2.622-2.149
		L3.58,31.372c0.012-0.616,0.237-2.363,2.432-2.382c0.003,0,0.003,0,0.003,0l2.378-0.009c0,0,2.239,0.104,3.035-2.284
		c0.013-0.032,0.028-0.047,0.038-0.076c0.477-1.759,1.166-3.43,2.059-4.967v-0.001c1.134-2.285-0.486-3.996-0.698-4.204
		l-1.617-1.617c0,0,0,0-0.003-0.003c-1.56-1.561-0.493-2.913-0.12-3.299l0.844-0.842c0,0,1.778-1.882,3.661,0
		c0.003,0,0.003,0.001,0.003,0.002l1.838,1.838c0.347,0.33,1.762,1.479,3.79,0.493c0.01-0.003,0.013-0.001,0.019-0.006
		c1.305-0.739,2.71-1.32,4.172-1.764c0.038-0.018,0.06-0.037,0.104-0.054c2.353-0.926,2.792-2.378,2.858-3.127V6.325
		c0.012-0.46,0.189-2.267,2.299-2.267h1.32c0,0,2.405-0.082,2.405,2.6v2.073c0.014,0.591,0.22,2.559,2.49,3.359
		c0.002,0.001,0.002,0.003,0.01,0.004c1.373,0.381,2.685,0.912,3.929,1.554l0.013-0.011c0,0,2.833,1.758,4.973-0.379l1.431-1.43
		c0.065-0.066,2.003-1.94,3.448-0.493c0.004,0.002,0.007,0.003,0.007,0.006l1.185,1.184c0,0,1.438,1.75-0.371,3.56l-1.603,1.604
		c0,0-1.671,1.71-0.458,4.305c0.021,0.044,0.021,0.073,0.041,0.115c0.738,1.347,1.322,2.791,1.753,4.299
		c0.003-0.001,0.019-0.014,0.019-0.014s0.52,2.603,2.84,2.595l2.252-0.008h0.061h0.102c0.066-0.003,2.752-0.046,2.758,2.489
		l0.007,1.067v0.004v0.262c-0.022,0.629-0.322,2.198-2.817,2.208l-2.16,0.007c-1.687,0.016-2.527,1.398-2.896,2.276
		c-0.144,0.386-0.472,1.633,0.72,2.806l0.307,0.303c0.006,0.004,0.01,0.007,0.017,0.014c1.778,1.907,3.052-0.766,3.052-0.766l0,0
		c0.805-1.342,1.986-1.61,2.618-1.654h3.294c1.001,0,1.813-0.813,1.813-1.813V27.82C63.229,26.817,62.416,26.006,61.415,26.006z"/>
</g>
</svg>
