<?xml version="1.0"?><svg width="256" height="512" xmlns="http://www.w3.org/2000/svg">
 <title>Blank fundraising thermometer</title>

 <metadata id="metadata7">image/svg+xmlThermometer2006-11-06Trent Buck &lt;twb@cyber.com.au&gt;</metadata>
 <g>
  <title>Layer 1</title>
  <!-- set the height attribute to something between 0 and 10.  Can be floating-point. -->
  <g id="svg_113">
   <g id="svg_76">
    <line fill="none" stroke="black" stroke-width="4" fill-opacity="0.75" x1="67.200002" y1="425.5" x2="91.200001" y2="425.5" id="svg_11"/>
    <line fill="none" stroke="black" stroke-width="4" fill-opacity="0.75" x1="114.950011" y1="406.949995" x2="67.249038" y2="406.949995" id="svg_14"/>
   </g>
   <g id="svg_77">
    <line fill="none" stroke="black" stroke-width="4" fill-opacity="0.75" x1="67.350392" y1="388.800781" x2="91.350391" y2="388.800781" id="svg_78"/>
    <line fill="none" stroke="black" stroke-width="4" fill-opacity="0.75" x1="115.100402" y1="370.250776" x2="67.399429" y2="370.250776" id="svg_79"/>
   </g>
   <g id="svg_80">
    <line fill="none" stroke="black" stroke-width="4" fill-opacity="0.75" x1="67.350392" y1="351.550781" x2="91.350391" y2="351.550781" id="svg_81"/>
    <line fill="none" stroke="black" stroke-width="4" fill-opacity="0.75" x1="115.100402" y1="333.000776" x2="67.399429" y2="333.000776" id="svg_82"/>
   </g>
   <g id="svg_83">
    <line fill="none" stroke="black" stroke-width="4" fill-opacity="0.75" x1="67.27422" y1="314.525391" x2="91.274219" y2="314.525391" id="svg_84"/>
    <line fill="none" stroke="black" stroke-width="4" fill-opacity="0.75" x1="115.02423" y1="295.975385" x2="67.323257" y2="295.975385" id="svg_85"/>
   </g>
   <g id="svg_86">
    <line fill="none" stroke="black" stroke-width="4" fill-opacity="0.75" x1="67.424611" y1="277.826172" x2="91.42461" y2="277.826172" id="svg_87"/>
    <line fill="none" stroke="black" stroke-width="4" fill-opacity="0.75" x1="115.174621" y1="259.276166" x2="67.473647" y2="259.276166" id="svg_88"/>
   </g>
   <g id="svg_89">
    <line fill="none" stroke="black" stroke-width="4" fill-opacity="0.75" x1="67.424611" y1="240.576172" x2="91.42461" y2="240.576172" id="svg_90"/>
    <line fill="none" stroke="black" stroke-width="4" fill-opacity="0.75" x1="115.174621" y1="222.026166" x2="67.473647" y2="222.026166" id="svg_91"/>
   </g>
   <g id="svg_92">
    <line fill="none" stroke="black" stroke-width="4" fill-opacity="0.75" x1="67.27422" y1="203.525391" x2="91.274219" y2="203.525391" id="svg_93"/>
    <line fill="none" stroke="black" stroke-width="4" fill-opacity="0.75" x1="115.02423" y1="184.975385" x2="67.323257" y2="184.975385" id="svg_94"/>
   </g>
   <g id="svg_95">
    <line fill="none" stroke="black" stroke-width="4" fill-opacity="0.75" x1="67.424611" y1="166.826172" x2="91.42461" y2="166.826172" id="svg_96"/>
    <line fill="none" stroke="black" stroke-width="4" fill-opacity="0.75" x1="115.174621" y1="148.276166" x2="67.473647" y2="148.276166" id="svg_97"/>
   </g>
   <g id="svg_98">
    <line fill="none" stroke="black" stroke-width="4" fill-opacity="0.75" x1="67.424611" y1="129.576172" x2="91.42461" y2="129.576172" id="svg_99"/>
    <line fill="none" stroke="black" stroke-width="4" fill-opacity="0.75" x1="115.174621" y1="111.026166" x2="67.473647" y2="111.026166" id="svg_100"/>
   </g>
   <g id="svg_110">
    <line fill="none" stroke="black" stroke-width="4" fill-opacity="0.75" x1="67.350392" y1="92.548828" x2="91.350391" y2="92.548828" id="svg_111"/>
    <line fill="none" stroke="black" stroke-width="4" fill-opacity="0.75" x1="115.100402" y1="73.998823" x2="67.399429" y2="73.998823" id="svg_112"/>
   </g>
  </g>
  <g id="svg_116">
   <rect fill="#c00" stroke-width="4" stroke-linejoin="round" stroke-linecap="round" x="29.500002" y="436.75" width="31.75" height="6.25" id="svg_114"/>
   <path id="path2924" d="m81,474a35.5,35.5 0 1 1 -71,0a35.5,35.5 0 1 1 71,0z" stroke-dashoffset="0" stroke-miterlimit="4" stroke-linejoin="round" stroke-linecap="round" stroke-width="4" fill-rule="nonzero" fill="#c00"/>
  </g>
  <path d="m45.5,11c-9.8335,0 -17.75,7.9165 -17.75,17.75l0,412.999512c-10.610411,6.140503 -17.75,17.617615 -17.75,30.750488c0,19.596008 15.903999,35.5 35.5,35.5c19.596001,0 35.5,-15.903992 35.5,-35.5c0,-13.132874 -7.13958,-24.609985 -17.75,-30.750488l0,-412.999512c0,-9.8335 -7.9165,-17.75 -17.75,-17.75z" id="rect2968" stroke-dashoffset="0" stroke-miterlimit="4" stroke-linejoin="round" stroke-linecap="round" stroke-width="4" stroke="black" fill-rule="nonzero" fill="none"/>
 </g>
</svg>