<?xml version="1.0" encoding="utf-8"?>
<!-- Generator: Adobe Illustrator 16.0.0, SVG Export Plug-In . SVG Version: 6.00 Build 0)  -->
<!DOCTYPE svg PUBLIC "-//W3C//DTD SVG 1.1//EN" "http://www.w3.org/Graphics/SVG/1.1/DTD/svg11.dtd">
<svg version="1.1" id="Capa_1" xmlns="http://www.w3.org/2000/svg" xmlns:xlink="http://www.w3.org/1999/xlink" x="0px" y="0px"
	 width="512px" height="512px" viewBox="0 0 512 512" enable-background="new 0 0 512 512" xml:space="preserve">
<g>
	<path fill="#FFFFFF" d="M308.857,105.104v56.143c14.951,6.526,28.699,15.861,40.581,27.742
		c24.959,24.959,38.704,58.143,38.704,93.439c0,35.296-13.745,68.48-38.704,93.438c-24.959,24.959-58.142,38.704-93.438,38.704
		s-68.48-13.745-93.439-38.704c-24.958-24.958-38.704-58.143-38.704-93.438c0-35.296,13.746-68.48,38.704-93.439
		c11.882-11.882,25.631-21.217,40.583-27.743v-56.143C126.728,127.85,71,198.625,71,282.429c0,102.173,82.828,185,185,185
		c102.174,0,185-82.827,185-185C441,198.625,385.273,127.85,308.857,105.104z M229.571,44.571h52.857V256h-52.857V44.571z"/>
</g>
</svg>
