<?xml version="1.0" encoding="utf-8"?>
<!-- Generator: Adobe Illustrator 16.0.0, SVG Export Plug-In . SVG Version: 6.00 Build 0)  -->
<!DOCTYPE svg PUBLIC "-//W3C//DTD SVG 1.1//EN" "http://www.w3.org/Graphics/SVG/1.1/DTD/svg11.dtd">
<svg version="1.1" id="Capa_1" xmlns="http://www.w3.org/2000/svg" xmlns:xlink="http://www.w3.org/1999/xlink" x="0px" y="0px"
	 width="512px" height="512px" viewBox="0 0 512 512" enable-background="new 0 0 512 512" xml:space="preserve">
<g>
	<g>
		<path fill="#FFFFFF" d="M457.945,197.878c-9.911-34.68-27.564-64.782-53.524-90.743c-19.991-19.986-43.002-35.282-68.693-45.717
			c-25.77-10.47-52.148-15.855-79.485-15.855v25.73c48.011,0,95.409,18.541,130.486,53.76
			c22.584,22.672,38.031,49.191,46.638,79.259c8.621,30.127,9.876,60.42,3.215,90.974c-6.66,30.553-20.216,57.66-40.895,81.323
			l-35.837-35.146v87.527l89.367,1.378l-35.837-35.837c23.892-27.112,39.742-58.127,47.555-92.815
			C468.742,267.026,467.797,232.347,457.945,197.878z"/>
		<path fill="#FFFFFF" d="M78.427,307.922c-8.606-30.063-9.65-60.421-2.989-90.974c6.666-30.559,20.447-57.896,41.125-81.558
			L152.399,171V83.013l-89.366-0.922l35.611,35.381c-23.893,27.107-39.748,58.121-47.555,92.811
			c-7.813,34.69-6.925,69.39,2.984,104.069c9.851,34.474,27.568,64.557,53.53,90.518c19.986,19.987,42.997,35.283,68.688,45.717
			c25.775,10.469,52.382,15.85,79.951,15.85v-25.27c-48.707,0-95.409-18.766-130.721-54.215
			C102.937,364.273,87.048,338.048,78.427,307.922z"/>
	</g>
</g>
</svg>
