<?xml version="1.0" encoding="iso-8859-1"?>
<!-- Generator: Adobe Illustrator 19.0.0, SVG Export Plug-In . SVG Version: 6.00 Build 0)  -->
<svg version="1.1" id="Layer_1" xmlns="http://www.w3.org/2000/svg" xmlns:xlink="http://www.w3.org/1999/xlink" x="0px" y="0px"
	 viewBox="0 0 330 330" style="enable-background:new 0 0 330 330;" xml:space="preserve">
<g id="XMLID_12_">
	<path id="XMLID_13_" d="M105.606,95.605l44.396-44.393v203.786c0,8.284,6.716,15,15,15c8.284,0,15-6.716,15-15V51.213
		l44.392,44.392c2.929,2.929,6.768,4.394,10.606,4.394s7.678-1.464,10.606-4.394c5.858-5.858,5.858-15.355,0-21.213L175.611,4.396
		c-0.351-0.351-0.72-0.682-1.104-0.997c-0.17-0.14-0.35-0.261-0.523-0.392c-0.217-0.162-0.429-0.33-0.654-0.48
		c-0.212-0.142-0.433-0.265-0.65-0.396c-0.202-0.121-0.399-0.248-0.607-0.359c-0.223-0.119-0.451-0.219-0.678-0.326
		c-0.217-0.102-0.431-0.211-0.653-0.303c-0.219-0.091-0.442-0.164-0.665-0.243c-0.239-0.086-0.476-0.178-0.721-0.252
		c-0.221-0.067-0.444-0.115-0.667-0.172c-0.252-0.064-0.501-0.134-0.757-0.185c-0.255-0.051-0.513-0.08-0.768-0.117
		c-0.228-0.033-0.452-0.076-0.683-0.099c-0.467-0.046-0.935-0.068-1.402-0.071c-0.025,0-0.051-0.004-0.076-0.004
		c-0.033,0-0.066,0.005-0.1,0.005c-0.46,0.003-0.92,0.024-1.377,0.07c-0.234,0.023-0.463,0.066-0.693,0.1
		c-0.253,0.037-0.507,0.066-0.758,0.115c-0.259,0.051-0.51,0.122-0.764,0.187c-0.221,0.056-0.442,0.104-0.66,0.17
		c-0.247,0.075-0.486,0.167-0.728,0.254c-0.22,0.079-0.441,0.151-0.659,0.241c-0.225,0.093-0.439,0.202-0.658,0.306
		c-0.225,0.106-0.452,0.206-0.673,0.324c-0.208,0.112-0.406,0.239-0.609,0.36c-0.218,0.13-0.438,0.253-0.649,0.395
		c-0.223,0.148-0.431,0.313-0.645,0.474c-0.178,0.133-0.361,0.257-0.535,0.4c-0.365,0.299-0.715,0.617-1.05,0.949
		c-0.016,0.016-0.033,0.029-0.049,0.044L84.394,74.391c-5.857,5.858-5.858,15.355,0,21.213
		C90.251,101.463,99.749,101.461,105.606,95.605z"/>
	<path id="XMLID_14_" d="M315,300H15c-8.284,0-15,6.716-15,15s6.716,15,15,15h300c8.284,0,15-6.716,15-15S323.284,300,315,300z"/>
</g>
<g>
</g>
<g>
</g>
<g>
</g>
<g>
</g>
<g>
</g>
<g>
</g>
<g>
</g>
<g>
</g>
<g>
</g>
<g>
</g>
<g>
</g>
<g>
</g>
<g>
</g>
<g>
</g>
<g>
</g>
</svg>
