<?xml version="1.0" encoding="utf-8"?>
<!-- Generator: Adobe Illustrator 16.0.0, SVG Export Plug-In . SVG Version: 6.00 Build 0)  -->
<!DOCTYPE svg PUBLIC "-//W3C//DTD SVG 1.1//EN" "http://www.w3.org/Graphics/SVG/1.1/DTD/svg11.dtd">
<svg version="1.1" id="Layer_1" xmlns="http://www.w3.org/2000/svg" xmlns:xlink="http://www.w3.org/1999/xlink" x="0px" y="0px"
	 width="612px" height="792px" viewBox="0 0 612 792" enable-background="new 0 0 612 792" xml:space="preserve">
<g id="XMLID_12_">
	<path id="XMLID_13_" d="M195.854,267.305l82.333-82.328l0.001,377.93c-0.001,15.362,12.454,27.817,27.819,27.817
		c15.363,0,27.818-12.455,27.818-27.817l-0.001-377.929l82.327,82.327c5.433,5.433,12.552,8.149,19.67,8.148
		c7.116,0,14.239-2.715,19.669-8.148c10.863-10.863,10.864-28.478,0-39.34L325.682,98.152c-0.651-0.65-1.335-1.265-2.049-1.848
		c-0.315-0.26-0.647-0.485-0.97-0.728c-0.402-0.301-0.796-0.612-1.213-0.891c-0.395-0.264-0.803-0.492-1.204-0.735
		c-0.376-0.225-0.74-0.46-1.126-0.666c-0.415-0.221-0.837-0.405-1.259-0.604c-0.402-0.188-0.799-0.393-1.211-0.563
		c-0.405-0.169-0.819-0.305-1.232-0.45c-0.442-0.159-0.883-0.33-1.338-0.468c-0.409-0.125-0.823-0.214-1.236-0.318
		c-0.468-0.119-0.929-0.25-1.403-0.343c-0.474-0.096-0.951-0.149-1.424-0.218c-0.424-0.062-0.839-0.142-1.268-0.184
		c-0.866-0.085-1.734-0.126-2.601-0.133c-0.045,0-0.095-0.006-0.141-0.007c-0.062,0-0.124,0.009-0.186,0.009
		c-0.854,0.006-1.707,0.045-2.554,0.131c-0.434,0.042-0.858,0.123-1.285,0.186c-0.469,0.068-0.939,0.121-1.404,0.213
		c-0.481,0.095-0.946,0.228-1.417,0.348c-0.41,0.104-0.821,0.192-1.226,0.314c-0.458,0.14-0.9,0.311-1.35,0.472
		c-0.408,0.146-0.818,0.279-1.222,0.446c-0.417,0.172-0.813,0.375-1.221,0.568c-0.418,0.196-0.839,0.382-1.249,0.601
		c-0.386,0.208-0.752,0.443-1.129,0.667c-0.403,0.24-0.813,0.47-1.204,0.732c-0.414,0.274-0.8,0.58-1.195,0.879
		c-0.33,0.246-0.67,0.478-0.992,0.742c-0.676,0.554-1.326,1.145-1.947,1.76c-0.031,0.029-0.062,0.055-0.091,0.082L156.513,227.962
		c-10.861,10.863-10.865,28.477,0,39.34C167.377,278.169,184.991,278.165,195.854,267.305z"/>
	<path id="XMLID_14_" d="M584.182,646.363H27.818C12.455,646.363,0,658.818,0,674.182C0,689.546,12.455,702,27.818,702h556.363
		C599.545,702,612,689.545,612,674.182C612,658.819,599.545,646.363,584.182,646.363z"/>
</g>
</svg>
