<?xml version="1.0" encoding="utf-8"?>
<!-- Generator: Adobe Illustrator 16.0.0, SVG Export Plug-In . SVG Version: 6.00 Build 0)  -->
<!DOCTYPE svg PUBLIC "-//W3C//DTD SVG 1.1//EN" "http://www.w3.org/Graphics/SVG/1.1/DTD/svg11.dtd">
<svg version="1.1" id="Layer_2" xmlns="http://www.w3.org/2000/svg" xmlns:xlink="http://www.w3.org/1999/xlink" x="0px" y="0px"
	 width="240px" height="240px" viewBox="0 0 240 240" enable-background="new 0 0 240 240" xml:space="preserve">
<path d="M44.044,62.978L24,43.124C48.578,18.945,82.424,4,119.799,4c37.582,0,71.593,15.108,96.2,39.522L196,63.333
	c-19.62-19.078-46.492-30.863-76.16-30.863C90.357,32.47,63.634,44.11,44.044,62.978z M119.919,86.128
	c14.634,0,27.906,5.738,37.683,15.053L177.6,81.37c-14.763-14.647-35.171-23.713-57.719-23.713
	c-22.425,0-42.734,8.966-57.481,23.474l20.044,19.854C92.198,91.786,105.386,86.128,119.919,86.128z M120.518,122.135
	c-9.44,0-17.095,7.581-17.095,16.933S111.077,156,120.518,156c9.438,0,17.092-7.581,17.092-16.933S129.958,122.135,120.518,122.135z
	"/>
</svg>
