<?xml version="1.0" encoding="utf-8"?>
<!-- Generator: Adobe Illustrator 16.0.0, SVG Export Plug-In . SVG Version: 6.00 Build 0)  -->
<!DOCTYPE svg PUBLIC "-//W3C//DTD SVG 1.1//EN" "http://www.w3.org/Graphics/SVG/1.1/DTD/svg11.dtd">
<svg version="1.1" id="Capa_1" xmlns="http://www.w3.org/2000/svg" xmlns:xlink="http://www.w3.org/1999/xlink" x="0px" y="0px"
	 width="612px" height="792px" viewBox="0 0 612 792" enable-background="new 0 0 612 792" xml:space="preserve">
<g id="Settings">
	<g>
		<path d="M563.867,367.186c-0.82-7.295-9.327-12.778-16.683-12.778c-23.781,0-44.884-13.963-53.733-35.558
			c-9.041-22.118-3.212-47.914,14.512-64.171c5.578-5.1,6.257-13.637,1.578-19.567c-12.172-15.456-26.006-29.417-41.11-41.517
			c-5.915-4.747-14.593-4.086-19.722,1.593c-15.468,17.13-43.251,23.497-64.721,14.539c-22.343-9.398-36.432-32.038-35.053-56.34
			c0.454-7.633-5.125-14.271-12.735-15.157c-19.384-2.242-38.938-2.312-58.379-0.154c-7.523,0.83-13.102,7.311-12.849,14.848
			c0.846,24.063-13.413,46.307-35.533,55.367c-21.212,8.665-48.801,2.352-64.238-14.626c-5.102-5.592-13.639-6.28-19.583-1.647
			c-15.553,12.202-29.697,26.175-41.981,41.504c-4.791,5.959-4.086,14.597,1.549,19.723c18.061,16.356,23.893,42.375,14.51,64.748
			c-8.958,21.331-31.107,35.078-56.464,35.078c-8.228-0.265-14.089,5.258-14.988,12.739c-2.283,19.496-2.31,39.361-0.112,59.015
			c0.815,7.326,9.58,12.76,17.016,12.76c22.597-0.577,44.292,13.413,53.394,35.561c9.072,22.118,3.241,47.897-14.51,64.169
			c-5.552,5.1-6.257,13.623-1.578,19.554c12.058,15.356,25.893,29.332,41.052,41.532c5.945,4.791,14.597,4.115,19.75-1.564
			c15.526-17.172,43.308-23.527,64.692-14.552c22.398,9.369,36.487,32.007,35.109,56.323c-0.45,7.637,5.155,14.285,12.735,15.158
			c9.916,1.157,19.892,1.734,29.895,1.734c9.495,0,18.992-0.521,28.487-1.578c7.525-0.83,13.1-7.311,12.848-14.861
			c-0.872-24.049,13.412-46.293,35.504-55.337c21.355-8.724,48.828-2.339,64.267,14.621c5.131,5.581,13.608,6.255,19.585,1.638
			c15.524-12.173,29.64-26.135,41.981-41.507c4.788-5.945,4.112-14.596-1.552-19.722c-18.061-16.355-23.921-42.378-14.538-64.735
			c8.821-21.047,30.147-35.179,53.086-35.179l3.21,0.084c7.44,0.604,14.286-5.127,15.188-12.723
			C566.037,406.688,566.064,386.84,563.867,367.186z M306.411,483.106c-47.732,0-86.558-38.825-86.558-86.558
			c0-47.729,38.825-86.557,86.558-86.557c47.729,0,86.555,38.828,86.555,86.557C392.966,444.281,354.14,483.106,306.411,483.106z"/>
	</g>
</g>
</svg>
